# xmcd
#
# Track frame offsets:
#	150
#	13835
#	26464
#	39341
#	53663
#	67721
#	81848
#	96978
#	110443
#	119315
#	132930
#	144195
#	156691
#	166236
#	193597
#
# Disc length: 2807 seconds
#
# Revision: 0
# Processed by: cddbd v1.5.1PL0 Copyright (c) Steve Scherf et al.
# Submitted via: dBpowerAMP V4.0
#
DISCID=c00af50f
DTITLE=Montéz de Durango - En vivo desde Chicago
DYEAR=2004
DGENRE=Latin
TTITLE0=Montéz de Durango - El sube y baja
TTITLE1=Montéz de Durango - Lagrimas de cristal
TTITLE2=Montéz de Durango - El verde pinito
TTITLE3=Montéz de Durango - En otros tiempos
TTITLE4=Montéz de Durango - Pasito Duranguense
TTITLE5=Montéz de Durango - Las mismas piedras
TTITLE6=Montéz de Durango - Hoy empieza mi tristeza
TTITLE7=Montéz de Durango - Llegando a Zacatecas
TTITLE8=Montéz de Durango - La revolcada
TTITLE9=Montéz de Durango - Camino a Tepehuanes
TTITLE10=Montéz de Durango - El Huerfano
TTITLE11=Montéz de Durango - Lino Rodarte
TTITLE12=Montéz de Durango - Colonia Hidalgo, Durango querido
TTITLE13=Montéz de Durango - Hoy empieza mi tristeza (ranchera)
TTITLE14=DATA
EXTD=
EXTT0=
EXTT1=
EXTT2=
EXTT3=
EXTT4=
EXTT5=
EXTT6=
EXTT7=
EXTT8=
EXTT9=
EXTT10=
EXTT11=
EXTT12=
EXTT13=
EXTT14=
PLAYORDER=
